<svg width="28" height="28" viewBox="0 0 28 28" fill="none" xmlns="http://www.w3.org/2000/svg">
<path fill-rule="evenodd" clip-rule="evenodd" d="M14 2.42252C10.7018 -0.924682 5.62976 -0.803255 2.4603 2.7868C-0.820101 6.50253 -0.820101 12.5269 2.4603 16.2426L12.0201 27.0711C13.1136 28.3096 14.8864 28.3096 15.9799 27.0711L25.5397 16.2426C28.8201 12.5269 28.8201 6.50253 25.5397 2.7868C22.3702 -0.803255 17.2982 -0.924682 14 2.42252ZM12.3598 5.02944C10.1729 2.55228 6.62714 2.55228 4.4402 5.02944C2.25327 7.50659 2.25327 11.5228 4.4402 14L14 24.8284L23.5598 14C25.7467 11.5228 25.7467 7.50659 23.5598 5.02944C21.3729 2.55228 17.8271 2.55228 15.6402 5.02944L14.9899 5.76598C14.4432 6.38527 13.5568 6.38527 13.01 5.76598L12.3598 5.02944Z" fill="#FF0000"/>
<path d="M4.4402 5.02944C6.62714 2.55228 10.1729 2.55228 12.3598 5.02944L13.01 5.76598C13.5568 6.38527 14.4432 6.38527 14.9899 5.76598L15.6402 5.02944C17.8271 2.55228 21.3729 2.55228 23.5598 5.02944C25.7467 7.50659 25.7467 11.5228 23.5598 14L14 24.8284L4.4402 14C2.25327 11.5228 2.25327 7.50659 4.4402 5.02944Z" fill="#FF0000"/>
</svg>
