<svg width="42" height="42" viewBox="0 0 42 42" fill="none" xmlns="http://www.w3.org/2000/svg">
<path d="M42 38.7188C42 40.531 40.531 42 38.7188 42H3.28125C1.46902 42 0 40.531 0 38.7188V3.28125C0 1.46902 1.46902 0 3.28125 0H38.7188C40.531 0 42 1.46902 42 3.28125V38.7188Z" fill="#FFE812"/>
<path d="M21 5.90625C11.5766 5.90625 3.9375 11.9295 3.9375 19.3594C3.9375 24.163 7.13114 28.3779 11.9352 30.7579C11.6739 31.6593 10.2557 36.5566 10.1993 36.9413C10.1993 36.9413 10.1653 37.2304 10.3525 37.3406C10.5397 37.4509 10.7599 37.3652 10.7599 37.3652C11.2967 37.2903 16.9849 33.2947 17.9694 32.6009C18.953 32.7402 19.9657 32.8125 21 32.8125C30.4234 32.8125 38.0625 26.7894 38.0625 19.3594C38.0625 11.9295 30.4234 5.90625 21 5.90625Z" fill="black"/>
<path d="M11.5664 24.0557C11.0235 24.0557 10.582 23.634 10.582 23.1156V17.2676H9.04608C8.51337 17.2676 8.08008 16.8351 8.08008 16.3037C8.08008 15.7723 8.51353 15.3398 9.04608 15.3398H14.0867C14.6194 15.3398 15.0527 15.7723 15.0527 16.3037C15.0527 16.8351 14.6193 17.2676 14.0867 17.2676H12.5508V23.1156C12.5508 23.634 12.1093 24.0557 11.5664 24.0557ZM20.1981 24.0429C19.7876 24.0429 19.4736 23.8762 19.3789 23.6081L18.8915 22.332L15.8898 22.3319L15.402 23.6088C15.3077 23.8763 14.9938 24.0429 14.5834 24.0429C14.3674 24.0431 14.154 23.9968 13.9576 23.907C13.6863 23.7818 13.4254 23.4376 13.7243 22.5092L16.0789 16.3116C16.2448 15.8402 16.7486 15.3546 17.3898 15.34C18.0328 15.3544 18.5366 15.8402 18.7028 16.3126L21.0564 22.5074C21.356 23.438 21.0952 23.7823 20.8238 23.9072C20.6274 23.9968 20.414 24.043 20.1981 24.0429C20.1981 24.0429 20.1979 24.0429 20.1981 24.0429ZM18.3739 20.5884L17.3906 17.7952L16.4074 20.5884H18.3739ZM22.6406 23.9121C22.1204 23.9121 21.6973 23.5072 21.6973 23.0098V16.3242C21.6973 15.7813 22.1481 15.3398 22.7021 15.3398C23.2562 15.3398 23.707 15.7813 23.707 16.3242V22.1074H25.7988C26.3191 22.1074 26.7422 22.5123 26.7422 23.0098C26.7422 23.5072 26.3191 23.9121 25.7988 23.9121H22.6406ZM28.1095 24.0429C27.5666 24.0429 27.1251 23.6014 27.1251 23.0585V16.3242C27.1251 15.7813 27.5666 15.3398 28.1095 15.3398C28.6524 15.3398 29.0939 15.7813 29.0939 16.3242V18.44L31.8403 15.6936C31.9815 15.5523 32.1756 15.4745 32.3863 15.4745C32.632 15.4745 32.8788 15.5805 33.0637 15.7653C33.2361 15.9375 33.339 16.1592 33.3531 16.3894C33.3674 16.6215 33.2901 16.8343 33.1359 16.9887L30.8926 19.2316L33.3157 22.4416C33.3939 22.5446 33.4509 22.6621 33.4834 22.7873C33.5158 22.9125 33.523 23.0429 33.5047 23.1709C33.4871 23.299 33.4443 23.4223 33.3788 23.5338C33.3132 23.6452 33.2262 23.7425 33.1227 23.8201C32.9525 23.9495 32.7445 24.0193 32.5306 24.0187C32.3781 24.0195 32.2276 23.9844 32.091 23.9165C31.9544 23.8485 31.8357 23.7496 31.7443 23.6275L29.4358 20.5687L29.0942 20.9103V23.058C29.0939 23.3191 28.99 23.5694 28.8055 23.754C28.6209 23.9386 28.3706 24.0425 28.1095 24.0429Z" fill="#FFE812"/>
</svg>
