<svg width="42" height="42" viewBox="0 0 42 42" fill="none" xmlns="http://www.w3.org/2000/svg">
<path d="M21 41.5C32.3218 41.5 41.5 32.3218 41.5 21C41.5 9.67816 32.3218 0.5 21 0.5C9.67816 0.5 0.5 9.67816 0.5 21C0.5 32.3218 9.67816 41.5 21 41.5Z" fill="white"/>
<path d="M21 1C24.9556 1 28.8224 2.17298 32.1114 4.37061C35.4004 6.56824 37.9638 9.69181 39.4776 13.3463C40.9913 17.0009 41.3874 21.0222 40.6157 24.9018C39.844 28.7814 37.9392 32.3451 35.1421 35.1421C32.3451 37.9392 28.7814 39.844 24.9018 40.6157C21.0222 41.3874 17.0009 40.9913 13.3463 39.4776C9.69181 37.9638 6.56824 35.4004 4.37061 32.1114C2.17298 28.8224 1 24.9556 1 21C1 15.6957 3.10714 10.6086 6.85786 6.85786C10.6086 3.10714 15.6957 1 21 1ZM21 0C15.4353 0.0158313 10.1031 2.23341 6.16825 6.16825C2.23341 10.1031 0.0158313 15.4353 0 21H0C0 26.5695 2.21249 31.911 6.15076 35.8492C10.089 39.7875 15.4305 42 21 42C26.5695 42 31.911 39.7875 35.8492 35.8492C39.7875 31.911 42 26.5695 42 21C41.9842 15.4353 39.7666 10.1031 35.8318 6.16825C31.8969 2.23341 26.5647 0.0158313 21 0V0Z" fill="#E6E6EA"/>
<path d="M23.73 21.5404L18.05 13.4004H13.34V28.6004H18.27V20.4604L23.95 28.6004H28.66V13.4004H23.73V21.5404Z" fill="#03C75A"/>
</svg>