<svg width="45" height="45" viewBox="0 0 45 45" fill="none" xmlns="http://www.w3.org/2000/svg">
<circle cx="22.5" cy="22.5" r="22.5" fill="#C4C4C4"/>
<path d="M23.6406 10.25L23.4375 26.5781H20.8281L20.6094 10.25H23.6406ZM20.5156 31.5469C20.5156 31.0781 20.6562 30.6823 20.9375 30.3594C21.2292 30.0365 21.6562 29.875 22.2188 29.875C22.7708 29.875 23.1927 30.0365 23.4844 30.3594C23.7865 30.6823 23.9375 31.0781 23.9375 31.5469C23.9375 31.9948 23.7865 32.3802 23.4844 32.7031C23.1927 33.026 22.7708 33.1875 22.2188 33.1875C21.6562 33.1875 21.2292 33.026 20.9375 32.7031C20.6562 32.3802 20.5156 31.9948 20.5156 31.5469Z" fill="black"/>
</svg>
