<svg width="183" height="113" viewBox="0 0 183 113" fill="none" xmlns="http://www.w3.org/2000/svg">
<path d="M65.0453 26.5773C67.4772 26.5773 69.4486 24.5585 69.4486 22.0682C69.4486 19.5779 67.4772 17.5591 65.0453 17.5591C62.6134 17.5591 60.642 19.5779 60.642 22.0682C60.642 24.5585 62.6134 26.5773 65.0453 26.5773Z" fill="#312F3D"/>
<path d="M99.1147 5.94727C100.716 7.96706 101.946 10.285 102.856 12.7818C103.729 15.2786 104.304 18.0362 103.918 21.0026C103.715 22.4708 103.241 23.9913 102.404 25.3477C101.575 26.7116 100.418 27.8669 99.1293 28.7016C97.8483 29.5513 96.4582 30.0879 95.0826 30.468L94.0927 30.714C93.8307 30.7736 93.576 30.8258 93.3212 30.9003C92.8045 31.0344 92.3096 31.2133 91.8146 31.4071C87.8553 32.9499 84.6674 36.3709 82.2438 40.4552C79.8274 44.5544 78.0224 49.235 76.574 54.0869L76.3994 53.8335C78.9176 54.0646 81.4577 54.0944 83.925 53.8708C85.1623 53.7739 86.3851 53.5876 87.586 53.3342C88.7869 53.0957 89.9587 52.7528 91.0868 52.3205C93.3649 51.4932 95.4028 50.1889 97.186 48.5865C99.0055 46.9916 100.468 44.9941 101.902 42.7955L102.033 43.1085C99.3986 42.393 96.5746 42.3855 94.0636 43.1607C91.5308 43.9134 89.3764 45.5233 87.7679 47.5953C86.1595 49.6747 85.0386 52.1566 84.2089 54.7428L83.6485 56.7253L83.088 58.7898C82.7023 60.1612 82.3093 61.5326 81.8799 62.8965C80.1185 68.3298 78.2626 73.7781 75.8244 79.0176C74.6016 81.6336 73.146 84.1751 71.3192 86.4185C69.4923 88.6619 67.156 90.5028 64.5286 91.4941C67.0104 90.1525 69.012 88.1253 70.5404 85.8148C72.0834 83.4969 73.1897 80.9107 74.1795 78.2946C76.1373 73.0253 77.4474 67.4876 78.9176 61.9947C79.2888 60.6233 79.6818 59.2519 80.0894 57.888L80.7226 55.8459C80.941 55.1602 81.203 54.4447 81.4432 53.7515C82.5058 50.979 83.9323 48.266 85.9848 46.0152C88.0227 43.7793 90.7666 42.1098 93.6997 41.603C95.1554 41.3123 96.6401 41.3197 98.0666 41.4986C99.5004 41.6924 100.891 42.0502 102.208 42.6762L102.441 42.788L102.339 42.9892C101.895 45.65 100.614 48.2064 98.7508 50.2486C97.8192 51.2697 96.7274 52.1417 95.5557 52.8646C94.3766 53.5727 93.132 54.1466 91.851 54.5863C89.2818 55.4508 86.6034 55.7713 83.976 55.7117C81.3486 55.6148 78.7502 55.2123 76.2829 54.318L76.0646 54.236L76.1009 54.0571C76.0209 52.7528 76.0646 51.456 76.1592 50.1591C76.2465 48.8623 76.4212 47.5729 76.6614 46.2835C77.1345 43.7122 77.855 41.1632 78.9249 38.7037C79.9875 36.2516 81.3849 33.8815 83.2409 31.8021C85.0896 29.7302 87.4186 27.9712 90.0606 26.8905C90.7229 26.6297 91.3925 26.3837 92.0767 26.2048C92.4187 26.1005 92.7608 26.026 93.1029 25.944L93.918 25.7651C94.9443 25.5117 95.8904 25.1465 96.7274 24.6844C98.3796 23.7304 99.5223 22.2845 100.09 20.2349C100.665 18.2076 100.694 15.8003 100.454 13.3855C100.206 10.9558 99.7261 8.48132 99.122 5.96963L99.1147 5.94727Z" fill="#312F3D"/>
<path d="M29.9278 5.94716C29.3237 8.45886 28.8361 10.9333 28.5959 13.363C28.3557 15.7778 28.3848 18.1852 28.9598 20.2124C29.5275 22.262 30.6775 23.7154 32.3223 24.6619C33.1593 25.1315 34.1055 25.4967 35.1317 25.7426L35.9469 25.9215C36.289 26.0035 36.6383 26.078 36.9731 26.1824C37.6573 26.3687 38.3269 26.6072 38.9892 26.8681C41.6312 27.9488 43.9602 29.7077 45.8089 31.7797C47.6648 33.8591 49.0623 36.2292 50.1249 38.6812C51.1948 41.1333 51.9081 43.6897 52.3884 46.2611C52.6213 47.543 52.796 48.8398 52.8906 50.1367C52.9925 51.4335 53.0362 52.7229 52.9488 54.0272L52.9852 54.2061L52.7669 54.2881C50.2996 55.1824 47.7012 55.5849 45.0738 55.6818C42.4464 55.7414 39.768 55.4209 37.1988 54.5564C35.9178 54.1166 34.6732 53.5428 33.4941 52.8347C32.3223 52.1118 31.2379 51.2397 30.299 50.2187C28.4285 48.1765 27.1548 45.6201 26.7108 42.9593L26.6089 42.7581L26.8418 42.6463C28.1592 42.0202 29.5493 41.6699 30.9831 41.4687C32.417 41.2898 33.8944 41.2824 35.3501 41.573C38.2832 42.0799 41.0271 43.7419 43.065 45.9853C45.1175 48.2361 46.544 50.9416 47.6066 53.7216C47.8541 54.4148 48.1088 55.1303 48.3272 55.8159L48.9604 57.8581C49.368 59.222 49.7683 60.5934 50.1322 61.9648C51.6024 67.4652 52.9124 73.0028 54.8703 78.2647C55.8601 80.8882 56.9664 83.4745 58.5094 85.7849C60.0378 88.0954 62.0393 90.1226 64.5212 91.4642C61.8938 90.4729 59.5575 88.632 57.7306 86.3886C55.9038 84.1452 54.4482 81.6037 53.2254 78.9877C50.7872 73.7407 48.9313 68.2925 47.1699 62.8666C46.7405 61.5027 46.3402 60.1313 45.9617 58.7599L45.4013 56.6954L44.8409 54.7129C44.0039 52.1341 42.8903 49.6448 41.2818 47.5653C39.6661 45.5008 37.519 43.8835 34.9862 43.1307C32.4752 42.3556 29.6512 42.3631 27.0165 43.0786L27.1475 42.7655C28.574 44.9642 30.0443 46.9616 31.8638 48.5566C33.6543 50.159 35.6922 51.4559 37.963 52.2906C39.0911 52.7229 40.2629 53.0658 41.4638 53.3042C42.6647 53.5577 43.8874 53.744 45.1247 53.8409C47.5993 54.0645 50.1322 54.0421 52.6504 53.8036L52.4758 54.0645C51.0274 49.2125 49.2224 44.5394 46.806 40.4327C44.3824 36.3559 41.2018 32.9274 37.2351 31.3846C36.7402 31.1909 36.2453 31.012 35.7285 30.8778C35.4738 30.8033 35.2118 30.7511 34.9571 30.6915L33.9672 30.4456C32.5989 30.0729 31.2088 29.5288 29.9205 28.6792C28.6323 27.8444 27.4678 26.6892 26.6453 25.3253C25.8083 23.9688 25.3352 22.4484 25.1314 20.9801C24.7457 18.0138 25.3207 15.2561 26.1941 12.7593C27.1038 10.2625 28.3266 7.9446 29.9351 5.9248L29.9278 5.94716Z" fill="#312F3D"/>
<path d="M54.4773 79.8149H74.5652" stroke="#312F3D" stroke-width="2.93" stroke-miterlimit="10"/>
<path d="M76.1665 20.861C75.8462 25.4223 70.8825 33.3971 68.4224 37.4218C67.3744 39.0838 66.3045 40.731 65.1982 42.3557L65.0744 42.6241C63.0147 39.8142 61.1151 36.8926 59.3174 33.8965C57.5706 30.9003 55.9403 27.9936 54.6811 24.677C53.0581 20.8461 53.6767 16.5605 56.195 13.2588C60.118 8.10869 67.8402 7.11743 72.5783 11.6713C75.0238 13.9892 76.3411 17.4847 76.1665 20.861ZM72.8185 20.861C72.6074 18.081 70.9261 15.7779 68.5825 14.5854C64.6814 12.4837 59.7977 13.9668 58.0364 18.2449C57.7016 19.0648 57.4905 19.9442 57.425 20.861C57.3886 21.6883 57.6143 22.7839 57.8253 23.641C59.6085 29.9985 62.5343 36.0802 65.2054 42.1694H64.8925C66.6101 38.6516 68.2332 35.0815 69.7252 31.4667C70.453 29.6631 71.1663 27.852 71.7559 26.026C72.2653 24.3565 72.8621 22.5901 72.8185 20.861Z" fill="#312F3D"/>
<path d="M64.5212 94.3111C91.5744 102.964 121.815 106.586 148.636 95.3321C149.917 94.7881 151.482 94.0949 152.741 93.5136C154.029 92.8875 155.506 92.1422 156.795 91.4863C131.488 112.482 91.9747 109.351 64.5212 94.3111Z" fill="url(#paint0_linear_906_2457)"/>
<path d="M95.1189 70.4316C93.2411 60.2506 83.6048 66.8541 87.8188 72.347C90.0751 74.6724 93.8452 75.0301 96.0505 77.6983C101.364 83.5043 94.7259 92.7685 87.7752 89.355C85.6572 88.3488 83.7794 86.1055 84.1433 83.6161C85.024 86.7464 88.3574 88.2072 91.1232 87.6781C96.2616 86.0607 96.611 80.2473 91.8 77.8101C90.046 76.7443 87.7825 75.9245 86.0866 73.7855C83.5247 70.5583 85.0167 65.3709 88.8087 63.9995C92.8335 62.4344 95.7448 66.6901 95.1189 70.4316Z" fill="#312F3D"/>
<path d="M130.054 70.4316C128.177 60.2506 118.54 66.8541 122.754 72.347C125.011 74.6724 128.781 75.0301 130.986 77.6983C136.299 83.5043 129.661 92.7685 122.711 89.355C120.593 88.3488 118.715 86.1055 119.079 83.6161C119.96 86.7464 123.293 88.2072 126.059 87.6781C131.197 86.0607 131.546 80.2473 126.736 77.8101C124.982 76.7443 122.718 75.9245 121.022 73.7855C118.46 70.5583 119.952 65.3709 123.744 63.9995C127.769 62.4344 130.68 66.6901 130.054 70.4316Z" fill="#312F3D"/>
<path d="M104.297 76.7368H111.408" stroke="#312F3D" stroke-width="3.81" stroke-miterlimit="10"/>
<path d="M99.1875 89.1163L106.953 65.7061L107.361 64.4912L107.87 65.6613L118.024 88.9225L115.054 90.1299L106.968 66.0266L107.885 65.9893L101.866 89.9361L99.1875 89.1163Z" fill="#312F3D"/>
<path d="M135.455 89.5113L139.109 66.5408L139.458 64.3496C139.909 65.326 145.106 76.6547 145.71 77.9665H143.745L149.08 66.347L149.917 64.521L150.339 66.5036L155.186 89.4144L151.62 90.0181L149.029 66.7197L150.288 66.8762C149.567 68.7693 145.339 79.785 144.72 81.3949C144.123 79.8446 139.851 68.7022 139.152 66.8762L140.419 66.6824L139.109 89.9212L135.448 89.5113H135.455Z" fill="#312F3D"/>
<defs>
<linearGradient id="paint0_linear_906_2457" x1="64.5212" y1="98.9469" x2="156.795" y2="98.9469" gradientUnits="userSpaceOnUse">
<stop stop-color="#80C45F"/>
<stop offset="1" stop-color="#5480E5"/>
</linearGradient>
</defs>
</svg>
