<svg width="26" height="26" viewBox="0 0 26 26" fill="none" xmlns="http://www.w3.org/2000/svg">
<path d="M17.9583 15.8333H16.8392L16.4425 15.4508C17.8308 13.8358 18.6667 11.7392 18.6667 9.45833C18.6667 4.3725 14.5442 0.25 9.45833 0.25C4.3725 0.25 0.25 4.3725 0.25 9.45833C0.25 14.5442 4.3725 18.6667 9.45833 18.6667C11.7392 18.6667 13.8358 17.8308 15.4508 16.4425L15.8333 16.8392V17.9583L22.9167 25.0275L25.0275 22.9167L17.9583 15.8333ZM9.45833 15.8333C5.93083 15.8333 3.08333 12.9858 3.08333 9.45833C3.08333 5.93083 5.93083 3.08333 9.45833 3.08333C12.9858 3.08333 15.8333 5.93083 15.8333 9.45833C15.8333 12.9858 12.9858 15.8333 9.45833 15.8333Z" fill="white"/>
</svg>
