<svg width="12" height="12" viewBox="0 0 12 12" fill="none" xmlns="http://www.w3.org/2000/svg">
<path d="M6.8792 11.5186H4.66949C4.72203 11.4353 4.76495 11.3674 4.80788 11.2995C5.06287 10.9023 5.17627 10.4544 5.29736 10.0047C5.48252 9.31852 5.39731 8.6221 5.41909 7.93016C5.42101 7.87827 5.3941 7.82509 5.37104 7.7354C5.33196 7.79883 5.31081 7.82381 5.29992 7.85264C5.08593 8.42605 4.51893 8.87645 3.74627 8.76497C3.49064 8.72845 3.23309 8.64452 3.04857 8.44719C2.93389 8.32482 2.78781 8.30368 2.64686 8.25819C2.23939 8.12814 1.99849 7.84624 1.87292 7.44517C1.84921 7.37021 1.7813 7.29076 1.71275 7.25104C0.907414 6.78206 0.772871 5.56541 1.3687 4.87412C1.4065 4.82991 1.44494 4.78186 1.46545 4.72868C1.58974 4.40834 1.81974 4.19371 2.12791 4.05789C2.22658 4.01432 2.28103 3.97524 2.24003 3.84134C1.99401 3.04049 2.51232 2.23579 3.38236 2.22426C3.48936 2.22298 3.59763 2.23387 3.70399 2.24797C3.78792 2.25886 3.83661 2.2422 3.87313 2.15443C4.09993 1.61369 4.5074 1.31962 5.09747 1.30937C5.30056 1.30616 5.50366 1.35165 5.7074 1.36575C5.76378 1.36959 5.83297 1.35486 5.8791 1.32346C6.39613 0.969166 6.95032 0.899973 7.52244 1.14535C7.99975 1.35037 8.28357 1.73094 8.35917 2.24989C8.37583 2.36393 8.41107 2.42736 8.53088 2.44401C9.01972 2.51193 9.31891 2.83034 9.5329 3.24102C9.59825 3.36659 9.62708 3.5178 9.6463 3.66067C9.67385 3.86504 9.67129 3.8753 9.87759 3.90669C10.8828 4.06173 11.2967 5.24315 10.7713 5.95046C10.6163 6.15932 10.5061 6.40278 10.3856 6.63535C10.3619 6.68212 10.3722 6.759 10.3921 6.81346C10.5798 7.32728 10.5151 7.80395 10.1448 8.20694C9.76162 8.62466 9.11902 8.7528 8.55971 8.43182C8.47578 8.38377 8.40851 8.37928 8.31369 8.40875C7.78192 8.57725 7.31102 8.4741 6.91636 8.06663C6.85614 8.00448 6.79399 7.93721 6.71903 7.89749C6.60243 7.83598 6.55758 7.86738 6.5563 8.00128C6.55309 8.35942 6.55502 8.71692 6.55502 9.07506C6.55502 9.46267 6.5563 9.84964 6.55502 10.2373C6.55309 10.6454 6.63062 11.0336 6.83115 11.3937C6.84524 11.4187 6.85101 11.4475 6.87664 11.5186H6.8792Z" stroke="white" stroke-width="0.5" stroke-linejoin="round"/>
</svg>
