<svg width="25" height="29" viewBox="0 0 25 29" fill="none" xmlns="http://www.w3.org/2000/svg">
<g clip-path="url(#clip0_774_9636)">
<path d="M9.23512 6.14548C9.16016 6.02991 9.10394 5.9409 9.04304 5.85345C8.60109 5.21161 8.15758 4.5729 7.71876 3.9295C7.07224 2.98158 7.16438 2.03991 8.00298 1.24503C8.93997 0.356452 10.4548 -0.315056 12.0227 0.570398C13.2189 1.24659 14.4651 1.44492 15.8065 1.21848C16.1548 1.15914 16.5186 1.16382 16.8747 1.181C17.6009 1.21692 18.0084 1.78692 17.8086 2.48654C17.7289 2.76451 17.6102 3.0378 17.4744 3.29391C16.959 4.26838 16.4281 5.2366 15.9033 6.20638C15.8487 6.30945 15.7987 6.41408 15.7347 6.54369C15.8627 6.61553 15.9721 6.678 16.0845 6.7389C18.7018 8.15844 20.8663 10.0449 22.2171 12.7512C23.2634 14.847 23.6569 17.0645 23.3961 19.3976C23.3212 20.0738 23.2884 20.7562 23.2306 21.4356C23.1588 22.271 23.4367 22.9613 24.0661 23.5188C24.9765 24.3262 25.3497 25.3147 25.0546 26.5203C24.7673 27.6915 23.9911 28.3661 22.7808 28.3443C21.8345 28.3255 20.8819 28.2209 19.948 28.0585C16.6045 27.4791 13.2407 27.2886 9.86446 27.5978C8.40276 27.7321 6.95824 28.0382 5.50435 28.2568C4.51426 28.4067 3.52418 28.4536 2.53722 28.2272C1.78919 28.0554 1.14423 27.7009 0.644503 27.1059C0.032338 26.3766 -0.00982636 25.563 0.533627 24.779C0.705408 24.5307 0.894367 24.2902 1.10363 24.0732C1.63771 23.5188 1.8782 22.8551 1.85478 22.0977C1.82042 21.017 1.78294 19.9364 1.7236 18.8557C1.57681 16.1978 2.18272 13.7273 3.52418 11.4316C3.5398 11.4035 3.55697 11.3754 3.57415 11.3473C3.80059 10.9803 4.06139 10.8741 4.34404 11.035C4.61577 11.1896 4.64856 11.4691 4.44087 11.8595C4.24722 12.2218 4.04108 12.5779 3.86306 12.948C2.91982 14.9172 2.58563 16.9942 2.74336 19.1649C2.81363 20.1238 2.84174 21.0873 2.86985 22.0493C2.90108 23.1424 2.50755 24.0763 1.75952 24.8696C1.58305 25.057 1.43001 25.2694 1.28946 25.4865C1.08957 25.7957 1.13174 26.0971 1.35974 26.3844C1.93599 27.109 2.74492 27.3667 3.60382 27.3604C4.47366 27.3542 5.34818 27.2339 6.20865 27.0918C9.12893 26.6077 12.0586 26.2329 15.0226 26.5015C17.0777 26.6889 19.1235 26.9888 21.1755 27.2199C21.7736 27.287 22.3795 27.3245 22.9807 27.3167C23.4961 27.3105 23.8459 27.0028 24.013 26.5156C24.2816 25.7316 24.1738 25.0242 23.5648 24.4245C23.4492 24.3105 23.3383 24.1919 23.2197 24.081C22.5044 23.4079 22.1843 22.5787 22.2468 21.6011C22.2952 20.8562 22.328 20.1113 22.4014 19.3679C22.7855 15.4435 21.4206 12.2187 18.5082 9.61858C17.3416 8.57696 16.0798 7.66964 14.6009 7.10276C12.5505 6.31569 10.5594 6.44063 8.6823 7.58063C7.93895 8.03194 7.28618 8.63005 6.59281 9.16258C6.53347 9.20786 6.48506 9.27033 6.42728 9.31718C6.14306 9.55143 5.84791 9.55143 5.64958 9.31718C5.45437 9.08918 5.49341 8.84088 5.75733 8.57696C6.5647 7.7649 7.4892 7.11213 8.49802 6.57337C8.7432 6.44219 8.98057 6.29539 9.23824 6.14548H9.23512ZM16.8544 2.14298C16.4281 2.17265 16.0533 2.207 15.68 2.22418C15.0554 2.25073 14.4292 2.30383 13.8061 2.27572C12.9846 2.23824 12.2944 1.7838 11.5667 1.4621C10.4829 0.982672 9.574 1.13728 8.71041 1.95558C8.2341 2.40846 8.18413 2.81605 8.5558 3.36574C9.05865 4.10909 9.57087 4.84462 10.0722 5.58797C10.1815 5.75038 10.3017 5.82378 10.5047 5.77537C11.8712 5.45054 13.2095 5.58016 14.5197 6.0549C14.729 6.12986 14.8352 6.07989 14.932 5.89405C15.527 4.75561 16.1282 3.62029 16.7248 2.48185C16.7732 2.39128 16.7997 2.28821 16.8544 2.14454V2.14298Z" fill="black"/>
<path d="M15.3373 15.6183C15.4098 15.4517 15.4514 15.3314 15.5131 15.2219C15.6427 14.9905 15.837 14.8826 16.1023 14.9659C16.3568 15.0445 16.5048 15.2805 16.42 15.5473C16.255 16.0656 16.0668 16.5776 15.8632 17.082C15.7599 17.3349 15.5301 17.3935 15.2709 17.3318C14.8144 17.2208 14.3563 17.1159 13.9013 16.9987C13.545 16.9077 13.397 16.7149 13.4309 16.4188C13.4618 16.1488 13.6407 16.0332 14.0324 16.0347C14.1373 16.0347 14.2407 16.0517 14.4026 16.0656C14.3409 15.9391 14.2977 15.8388 14.2453 15.7447C13.8196 14.9797 13.3908 14.2163 12.9682 13.4497C12.8402 13.2184 12.7029 13.0024 12.4006 12.9978C12.0952 12.9932 11.9549 13.2045 11.8253 13.4374C11.3472 14.2949 10.8675 15.154 10.3832 16.0085C10.3046 16.1458 10.2059 16.2753 10.0963 16.3895C9.93903 16.5529 9.74623 16.5946 9.54727 16.4589C9.34985 16.3247 9.2681 16.1365 9.34676 15.9036C9.38378 15.7926 9.43776 15.6861 9.49483 15.5843C9.99301 14.6882 10.5004 13.7968 10.994 12.8991C11.304 12.3361 11.7498 12.0184 12.4083 12.0215C13.0546 12.0246 13.4911 12.3439 13.7934 12.8945C14.236 13.6996 14.6879 14.4985 15.1368 15.3005C15.1923 15.3977 15.2555 15.4903 15.3388 15.6214L15.3373 15.6183Z" fill="black"/>
<path d="M14.0199 21.4719C14.9761 21.4719 15.8614 21.4873 16.7452 21.4657C17.1509 21.4564 17.282 21.1834 17.0876 20.8272C16.7283 20.1717 16.3627 19.5208 16.0003 18.8684C15.9586 18.7943 15.9154 18.7203 15.8784 18.6432C15.718 18.3085 15.7658 18.0478 16.0126 17.9152C16.2748 17.7733 16.5601 17.8628 16.7375 18.1728C17.1663 18.9239 17.6012 19.6704 18.0007 20.4369C18.485 21.3639 17.9344 22.3664 16.884 22.4374C16.065 22.4929 15.2414 22.4667 14.4209 22.4775C14.3068 22.4775 14.1926 22.4775 14.0168 22.4775C14.1294 22.6286 14.2111 22.7212 14.2728 22.8245C14.4086 23.0528 14.4039 23.2795 14.1942 23.46C13.989 23.6358 13.7453 23.6497 13.5541 23.463C13.1654 23.0821 12.7953 22.6826 12.4343 22.277C12.2385 22.0564 12.2924 21.8174 12.4806 21.6138C12.806 21.2606 13.133 20.9089 13.4693 20.565C13.7037 20.3259 13.9721 20.3043 14.1818 20.4817C14.407 20.6729 14.4163 20.9428 14.2065 21.2205C14.1571 21.2852 14.1093 21.3516 14.0199 21.4734V21.4719Z" fill="black"/>
<path d="M7.906 18.3957C7.74096 18.4204 7.62683 18.4404 7.51424 18.4512C7.19497 18.4851 6.98213 18.3571 6.92043 18.0965C6.85257 17.8127 6.98675 17.5875 7.30756 17.4996C7.78106 17.37 8.25919 17.2528 8.73732 17.1448C9.07356 17.0693 9.26943 17.171 9.39591 17.4949C9.56711 17.933 9.72751 18.3741 9.87712 18.8198C9.98971 19.1545 9.88021 19.4044 9.60413 19.5062C9.33421 19.6049 9.09361 19.4753 8.95171 19.153C8.91315 19.0666 8.87614 18.9802 8.81136 18.8306C8.64633 19.1268 8.50751 19.3735 8.37024 19.6203C8.1574 20.0028 7.93993 20.3838 7.73171 20.7678C7.4911 21.212 7.62683 21.4634 8.14198 21.4727C8.98564 21.4896 9.82931 21.4819 10.6745 21.485C10.7809 21.485 10.8889 21.4788 10.9938 21.4943C11.273 21.5344 11.4411 21.7349 11.4195 22.0032C11.3979 22.2793 11.2375 22.4413 10.966 22.449C10.4971 22.4644 10.0267 22.4536 9.55631 22.4567C9.09669 22.4598 8.63861 22.4582 8.17899 22.4737C7.59907 22.4937 7.12711 22.2963 6.82018 21.7919C6.51942 21.2968 6.56415 20.7971 6.84794 20.3036C7.15179 19.7761 7.44637 19.244 7.74405 18.7119C7.79495 18.6209 7.83967 18.5268 7.90754 18.3926L7.906 18.3957Z" fill="black"/>
<path d="M7.95548 10.0247C7.8506 10.1959 7.79662 10.3424 7.69637 10.4411C6.76016 11.3481 6.03988 12.4107 5.4106 13.5444C5.34274 13.6677 5.22398 13.8235 5.10522 13.8467C4.92939 13.8806 4.63942 13.8713 4.56693 13.7665C4.46514 13.6169 4.43583 13.3223 4.51604 13.1588C4.98183 12.2226 5.51394 11.3234 6.22342 10.5445C6.48871 10.253 6.76324 9.96919 7.0455 9.69465C7.21361 9.52962 7.43417 9.47563 7.63005 9.61445C7.76269 9.70853 7.84289 9.87819 7.95548 10.0263V10.0247Z" fill="black"/>
<path d="M10.084 8.54336C10.0346 8.60968 9.96057 8.77317 9.83564 8.86108C9.52254 9.0801 9.19094 9.27443 8.85779 9.46106C8.57708 9.61838 8.28866 9.54126 8.12825 9.29911C7.94317 9.01994 8.10975 8.81018 8.30408 8.67137C8.65574 8.41843 9.03053 8.18707 9.41766 7.99428C9.72922 7.8385 10.0855 8.10224 10.084 8.5449V8.54336Z" fill="black"/>
<path d="M4.94023 10.5398C4.66878 10.5382 4.44976 10.3208 4.44514 10.0524C4.44051 9.77014 4.66724 9.54187 4.95257 9.54495C5.22403 9.54804 5.4415 9.76242 5.44767 10.0308C5.45384 10.3115 5.22557 10.5413 4.94023 10.5382V10.5398Z" fill="black"/>
</g>
<defs>
<clipPath id="clip0_774_9636">
<rect width="25" height="28.1865" fill="white"/>
</clipPath>
</defs>
</svg>
