<svg width="10" height="10" viewBox="0 0 10 10" fill="none" xmlns="http://www.w3.org/2000/svg">
<g clip-path="url(#clip0_1383_11193)">
<path d="M1.76611 3.78174C2.53905 2.92633 3.01535 2.83306 3.312 2.92077C3.41236 2.95041 3.4667 2.99303 3.68294 3.09309C4.16367 3.31543 4.6128 3.43278 4.74976 3.45501C5.56262 3.58595 5.87146 1.77322 6.66714 1.68119C6.97432 1.64598 7.46392 1.84239 8.167 3.12767" stroke="white" stroke-width="0.5" stroke-miterlimit="10"/>
<path d="M2.89854 1.73756C3.11945 1.73756 3.29854 1.55847 3.29854 1.33756C3.29854 1.11665 3.11945 0.937561 2.89854 0.937561C2.67762 0.937561 2.49854 1.11665 2.49854 1.33756C2.49854 1.55847 2.67762 1.73756 2.89854 1.73756Z" fill="white"/>
<path d="M0.85 6.79998C1.18137 6.79998 1.45 6.53135 1.45 6.19998C1.45 5.8686 1.18137 5.59998 0.85 5.59998C0.518629 5.59998 0.25 5.8686 0.25 6.19998C0.25 6.53135 0.518629 6.79998 0.85 6.79998Z" fill="white"/>
<path d="M9.15 6.89998C9.50899 6.89998 9.8 6.60896 9.8 6.24998C9.8 5.89099 9.50899 5.59998 9.15 5.59998C8.79102 5.59998 8.5 5.89099 8.5 6.24998C8.5 6.60896 8.79102 6.89998 9.15 6.89998Z" fill="white"/>
<path d="M0.706299 10V6.2467C0.706299 6.2467 4.59762 9.23725 9.29294 6.2467V10" stroke="white" stroke-width="0.5" stroke-miterlimit="10"/>
<path d="M8.13684 0.24707H1.79639V4.88174H8.13684V0.24707Z" stroke="white" stroke-width="0.5" stroke-linecap="round" stroke-linejoin="round"/>
</g>
<defs>
<clipPath id="clip0_1383_11193">
<rect width="10" height="10" fill="white"/>
</clipPath>
</defs>
</svg>
