<svg width="10" height="12" viewBox="0 0 10 12" fill="none" xmlns="http://www.w3.org/2000/svg">
<g clip-path="url(#clip0_1383_11216)">
<path d="M1.89489 1.17492V5.17161L0.220947 6.15531V4.14702L3.62962 2.22991V0.221069L1.89489 1.17492Z" stroke="white" stroke-width="0.4" stroke-linejoin="round"/>
<path d="M0.220947 6.15533L1.92529 7.13571L3.62962 6.15533L1.89489 5.17163L0.220947 6.15533Z" stroke="white" stroke-width="0.4" stroke-linejoin="round"/>
<path d="M3.62964 6.15531V4.1647L5.32513 3.18819V1.14177L3.62964 0.221069" stroke="white" stroke-width="0.4" stroke-linejoin="round"/>
<path d="M3.62964 2.22992L5.32513 3.1882" stroke="white" stroke-width="0.4" stroke-linejoin="round"/>
<path d="M8.1051 5.04724V9.04392L9.77904 10.0282V8.01933L6.37036 6.10223V4.09338L8.1051 5.04724Z" stroke="white" stroke-width="0.4" stroke-linejoin="round"/>
<path d="M9.77904 10.0282L8.0747 11.008L6.37036 10.0282L8.1051 9.04395L9.77904 10.0282Z" stroke="white" stroke-width="0.4" stroke-linejoin="round"/>
<path d="M6.37036 10.0282V8.03315L4.67432 7.0605V5.01408L6.37036 4.09338" stroke="white" stroke-width="0.4" stroke-linejoin="round"/>
<path d="M6.37036 6.10223L4.67432 7.06051" stroke="white" stroke-width="0.4" stroke-linejoin="round"/>
</g>
<defs>
<clipPath id="clip0_1383_11216">
<rect width="10" height="11.2291" fill="white"/>
</clipPath>
</defs>
</svg>
