<svg width="25" height="25" viewBox="0 0 25 25" fill="none" xmlns="http://www.w3.org/2000/svg">
<g clip-path="url(#clip0_774_9625)">
<path d="M4.41504 9.45398C6.34739 7.31545 7.53813 7.08229 8.27975 7.30155C8.53065 7.37567 8.66649 7.48221 9.20711 7.73235C10.4089 8.28821 11.5318 8.58158 11.8741 8.63717C13.9063 8.96451 14.6784 4.43267 16.6676 4.20261C17.4356 4.1146 18.6596 4.60561 20.4173 7.81881" stroke="black" stroke-miterlimit="10"/>
<path d="M7.24609 4.34375C7.79838 4.34375 8.24609 3.89603 8.24609 3.34375C8.24609 2.79147 7.79838 2.34375 7.24609 2.34375C6.69381 2.34375 6.24609 2.79147 6.24609 3.34375C6.24609 3.89603 6.69381 4.34375 7.24609 4.34375Z" fill="black"/>
<path d="M1.5 17C2.32843 17 3 16.3284 3 15.5C3 14.6716 2.32843 14 1.5 14C0.671573 14 0 14.6716 0 15.5C0 16.3284 0.671573 17 1.5 17Z" fill="black"/>
<path d="M23.5 17C24.3284 17 25 16.3284 25 15.5C25 14.6716 24.3284 14 23.5 14C22.6716 14 22 14.6716 22 15.5C22 16.3284 22.6716 17 23.5 17Z" fill="black"/>
<path d="M1.76611 25.0005V15.6172C1.76611 15.6172 11.4944 23.0936 23.2327 15.6172V25.0005" stroke="black" stroke-miterlimit="10"/>
<path d="M20.3423 0.617188H4.49121V12.2039H20.3423V0.617188Z" stroke="black" stroke-linecap="round" stroke-linejoin="round"/>
</g>
<defs>
<clipPath id="clip0_774_9625">
<rect width="25" height="25" fill="white"/>
</clipPath>
</defs>
</svg>
