<svg width="25" height="29" viewBox="0 0 25 29" fill="none" xmlns="http://www.w3.org/2000/svg">
<g clip-path="url(#clip0_774_9644)">
<path d="M18.4821 21.2808L21.0109 7.47544C21.0325 7.35723 20.9878 7.23759 20.8957 7.16263L12.8196 0.648429C12.7001 0.551847 12.5287 0.551847 12.4092 0.64987L4.33604 7.27218C4.241 7.35003 4.1978 7.474 4.22372 7.5922L7.18023 21.2923C7.20183 21.3933 7.27095 21.4783 7.366 21.5215L12.497 23.8078C12.5791 23.8438 12.6713 23.8453 12.7534 23.8107L18.2862 21.5215C18.3885 21.4797 18.4619 21.3875 18.4821 21.2794V21.2808Z" stroke="black" stroke-miterlimit="10"/>
<path d="M12.6497 0.648438L12.5835 23.8121" stroke="black" stroke-miterlimit="10"/>
<path d="M24.3965 25.1439H21.0684C21.0497 25.1439 21.0324 25.1467 21.0137 25.1511L10.6263 27.802C9.99268 27.9635 9.3216 27.8452 8.78012 27.4777L1.04683 22.219C0.453508 21.8154 0.413185 20.9548 0.96618 20.4979C1.34636 20.1836 1.85904 20.0798 2.33283 20.224L8.21416 22.01" fill="white"/>
<path d="M24.3965 25.1439H21.0684C21.0497 25.1439 21.0324 25.1467 21.0137 25.1511L10.6263 27.802C9.99268 27.9635 9.3216 27.8452 8.78012 27.4777L1.04683 22.219C0.453508 21.8154 0.413185 20.9548 0.96618 20.4979C1.34636 20.1836 1.85904 20.0798 2.33283 20.224L8.21416 22.01" stroke="black" stroke-linecap="round" stroke-linejoin="round"/>
<path d="M17.4381 23.4597H10.0087C9.25986 23.4597 8.70975 22.7591 8.88544 22.0312L8.90848 21.936C9.02801 21.4387 9.38083 21.0308 9.85606 20.8419L14.8229 18.8598C15.075 18.7589 15.3443 18.707 15.615 18.707H17.6959C17.922 18.707 18.1452 18.746 18.3584 18.8224L21.9932 20.1327C22.0162 20.1413 22.0392 20.1457 22.0637 20.1457L24.424 20.1846" fill="white"/>
<path d="M17.4381 23.4597H10.0087C9.25986 23.4597 8.70975 22.7591 8.88544 22.0312L8.90848 21.936C9.02801 21.4387 9.38083 21.0308 9.85606 20.8419L14.8229 18.8598C15.075 18.7589 15.3443 18.707 15.615 18.707H17.6959C17.922 18.707 18.1452 18.746 18.3584 18.8224L21.9932 20.1327C22.0162 20.1413 22.0392 20.1457 22.0637 20.1457L24.424 20.1846" stroke="black" stroke-linecap="round" stroke-linejoin="round"/>
<path d="M6.62305 9.24082L10.3558 6.38086" stroke="black" stroke-linecap="round" stroke-linejoin="round"/>
<path d="M7.35449 12.6186L10.1353 10.5312" stroke="black" stroke-linecap="round" stroke-linejoin="round"/>
<path d="M8.08765 15.8873L9.8892 14.5352" stroke="black" stroke-linecap="round" stroke-linejoin="round"/>
</g>
<defs>
<clipPath id="clip0_774_9644">
<rect width="25" height="28.4483" fill="white"/>
</clipPath>
</defs>
</svg>
