<svg width="25" height="29" viewBox="0 0 25 29" fill="none" xmlns="http://www.w3.org/2000/svg">
<g clip-path="url(#clip0_1299_11182)">
<path d="M19 19L21.0109 7.4757C21.0325 7.35749 20.9878 7.23785 20.8957 7.16289L12.8196 0.648688C12.7001 0.552107 12.5287 0.552107 12.4092 0.65013L4.33604 7.27244C4.241 7.35029 4.1978 7.47426 4.22372 7.59246L7.5 22" stroke="black" stroke-miterlimit="10"/>
<path d="M12.6497 0.648682L12.5835 19.9487" stroke="black" stroke-miterlimit="10"/>
<path d="M24.3965 25.1429H21.0684C21.0497 25.1429 21.0324 25.1458 21.0137 25.1501L10.6263 27.801C9.99268 27.9625 9.3216 27.8443 8.78012 27.4767L1.04683 22.2181C0.453508 21.8144 0.413185 20.9538 0.96618 20.4969C1.34636 20.1826 1.85904 20.0788 2.33283 20.223L8.21416 22.009" stroke="black" stroke-linecap="round" stroke-linejoin="round"/>
<path d="M17.4381 23.4592H10.0087C9.25986 23.4592 8.70975 22.7586 8.88544 22.0307L8.90848 21.9355C9.02801 21.4382 9.38083 21.0302 9.85606 20.8414L14.8229 18.8593C15.075 18.7584 15.3443 18.7065 15.615 18.7065H17.6959C17.922 18.7065 18.1452 18.7454 18.3584 18.8218L21.9932 20.1322C22.0162 20.1408 22.0392 20.1452 22.0637 20.1452L24.424 20.1841" stroke="black" stroke-linecap="round" stroke-linejoin="round"/>
<path d="M6.62305 9.24011L10.3558 6.38014" stroke="black" stroke-linecap="round" stroke-linejoin="round"/>
<path d="M7.35449 12.619L10.1353 10.5317" stroke="black" stroke-linecap="round" stroke-linejoin="round"/>
<path d="M8.08765 15.8869L9.8892 14.5348" stroke="black" stroke-linecap="round" stroke-linejoin="round"/>
</g>
<defs>
<clipPath id="clip0_1299_11182">
<rect width="25" height="28.4483" fill="white"/>
</clipPath>
</defs>
</svg>
