<svg width="10" height="12" viewBox="0 0 10 12" fill="none" xmlns="http://www.w3.org/2000/svg">
<g clip-path="url(#clip0_1383_11208)">
<path d="M7.6 7.60002L8.40435 2.9903C8.41299 2.94302 8.39513 2.89516 8.35827 2.86517L5.12785 0.259494C5.08004 0.220861 5.01149 0.220861 4.96368 0.26007L1.73442 2.909C1.6964 2.94013 1.67912 2.98972 1.68949 3.037L3 8.80002" stroke="white" stroke-width="0.4" stroke-miterlimit="10"/>
<path d="M5.05994 0.25946L5.03345 7.97946" stroke="white" stroke-width="0.4" stroke-miterlimit="10"/>
<path d="M9.75864 10.0571H8.42742C8.41993 10.0571 8.41302 10.0583 8.40553 10.06L4.25058 11.1204C3.99712 11.185 3.72869 11.1377 3.5121 10.9907L0.418779 8.88721C0.181452 8.72576 0.165323 8.38152 0.386521 8.19874C0.538595 8.07304 0.743664 8.03152 0.93318 8.08918L3.28571 8.8036" stroke="white" stroke-width="0.4" stroke-linecap="round" stroke-linejoin="round"/>
<path d="M6.97526 9.38367H4.00348C3.70394 9.38367 3.4839 9.10344 3.55418 8.81226L3.56339 8.7742C3.6112 8.57527 3.75233 8.41209 3.94242 8.33656L5.92917 7.54373C6.02998 7.50336 6.1377 7.4826 6.24599 7.4826H7.07837C7.16881 7.4826 7.25809 7.49817 7.34335 7.52873L8.79726 8.05287C8.80648 8.05633 8.8157 8.05806 8.82549 8.05806L9.76961 8.07363" stroke="white" stroke-width="0.4" stroke-linecap="round" stroke-linejoin="round"/>
<path d="M2.64917 3.69605L4.14226 2.55206" stroke="white" stroke-width="0.4" stroke-linecap="round" stroke-linejoin="round"/>
<path d="M2.94189 5.04763L4.05422 4.21271" stroke="white" stroke-width="0.4" stroke-linecap="round" stroke-linejoin="round"/>
<path d="M3.23511 6.35476L3.95573 5.8139" stroke="white" stroke-width="0.4" stroke-linecap="round" stroke-linejoin="round"/>
</g>
<defs>
<clipPath id="clip0_1383_11208">
<rect width="10" height="11.3793" fill="white"/>
</clipPath>
</defs>
</svg>
