<svg width="25" height="25" viewBox="0 0 25 25" fill="none" xmlns="http://www.w3.org/2000/svg">
<g clip-path="url(#clip0_774_9633)">
<path d="M17.3274 17.8667C17.3274 16.4491 17.3468 15.0298 17.3098 13.614C17.3028 13.3264 17.1442 12.948 16.938 12.7765C14.7899 10.9873 14.0357 8.64826 14.4903 5.79126C14.7916 3.8978 15.6111 2.35243 17.1389 1.35021C19.1759 0.0133608 21.6641 0.707852 23.1126 2.9948C24.9982 5.97623 24.7057 10.5081 21.6729 12.8018C21.4703 12.9548 21.3311 13.3617 21.3293 13.6526C21.3029 16.4676 21.3276 19.2809 21.3082 22.0958C21.2976 23.732 19.9108 24.7544 18.5557 24.1423C17.7433 23.7757 17.3433 23.0627 17.3327 22.121C17.3168 20.7035 17.3292 19.2859 17.3274 17.8667V17.8667Z" stroke="black" stroke-miterlimit="10"/>
<path d="M3.67757 13.634C1.62816 13.2657 0.706543 12.0903 0.706543 9.92778C0.706543 7.26417 0.706543 4.60055 0.706543 1.93693C0.706543 1.42405 0.843993 0.9448 1.31802 0.808592C1.62111 0.72115 2.06518 0.758145 2.29426 0.949845C2.52863 1.14659 2.67842 1.59893 2.68723 1.94534C2.72952 3.42681 2.70485 4.90828 2.70485 6.39143C2.70485 6.60331 2.70485 6.81518 2.70485 7.07919H4.68378C4.68378 6.73615 4.68378 6.39984 4.68378 6.06352C4.68378 4.66781 4.67673 3.27042 4.6873 1.87471C4.69435 1.13314 5.08379 0.685837 5.67764 0.6892C6.26797 0.692563 6.65213 1.14154 6.65741 1.88648C6.66799 3.36795 6.66094 4.8511 6.66094 6.33257C6.66094 6.56463 6.66094 6.79837 6.66094 7.07919H8.63986C8.63986 6.60162 8.63986 6.13583 8.63986 5.67003C8.63986 4.38194 8.62929 3.09217 8.64691 1.80409C8.65572 1.13314 9.08217 0.684156 9.64254 0.687519C10.173 0.692563 10.6223 1.12641 10.6258 1.75532C10.6399 4.71994 10.6734 7.68456 10.6029 10.6458C10.573 11.8902 9.80466 13.3094 7.66714 13.6407C7.66714 13.8593 7.66714 14.088 7.66714 14.3184C7.66714 16.9181 7.67419 19.5161 7.66185 22.1159C7.65657 23.1467 7.09091 23.9505 6.22392 24.2363C5.41508 24.502 4.5058 24.1876 4.05115 23.3636C3.83088 22.9634 3.70224 22.4438 3.69519 21.9746C3.66171 19.4405 3.67933 16.9063 3.67933 14.3705V13.634H3.67757Z" stroke="black" stroke-miterlimit="10"/>
</g>
<defs>
<clipPath id="clip0_774_9633">
<rect width="25" height="25" fill="white"/>
</clipPath>
</defs>
</svg>
