<svg width="10" height="10" viewBox="0 0 10 10" fill="none" xmlns="http://www.w3.org/2000/svg">
<g clip-path="url(#clip0_1383_11190)">
<path d="M6.93102 7.14673C6.93102 6.5797 6.93877 6.012 6.92397 5.44564C6.92115 5.33062 6.85771 5.17928 6.77524 5.11067C5.916 4.39499 5.61432 3.45936 5.79618 2.31656C5.91671 1.55918 6.24447 0.941035 6.8556 0.540147C7.67043 0.00540535 8.6657 0.283202 9.24511 1.19798C9.99932 2.39055 9.88231 4.20329 8.66923 5.12076C8.58817 5.18197 8.53248 5.34475 8.53178 5.46111C8.52121 6.5871 8.53107 7.71241 8.52332 8.83839C8.51909 9.49286 7.96436 9.90182 7.42231 9.65698C7.09737 9.51035 6.93736 9.22515 6.93313 8.84848C6.92679 8.28145 6.93172 7.71443 6.93102 7.14673V7.14673Z" stroke="white" stroke-width="0.4" stroke-miterlimit="10"/>
<path d="M1.47113 5.45368C0.651362 5.30637 0.282715 4.8362 0.282715 3.9712C0.282715 2.90575 0.282715 1.8403 0.282715 0.774858C0.282715 0.569705 0.337695 0.378005 0.527305 0.323522C0.648543 0.288546 0.82617 0.303343 0.917803 0.380023C1.01155 0.458721 1.07147 0.639659 1.07499 0.778221C1.09191 1.37081 1.08204 1.9634 1.08204 2.55666C1.08204 2.64141 1.08204 2.72616 1.08204 2.83176H1.87361C1.87361 2.69455 1.87361 2.56002 1.87361 2.42549C1.87361 1.86721 1.87079 1.30825 1.87502 0.74997C1.87784 0.45334 2.03361 0.27442 2.27116 0.275766C2.50729 0.277111 2.66095 0.456703 2.66306 0.754679C2.66729 1.34727 2.66447 1.94053 2.66447 2.53311C2.66447 2.62594 2.66447 2.71943 2.66447 2.83176H3.45604C3.45604 2.64074 3.45604 2.45442 3.45604 2.2681C3.45604 1.75286 3.45181 1.23695 3.45886 0.72172C3.46239 0.45334 3.63297 0.273748 3.85711 0.275093C4.06928 0.277111 4.24902 0.45065 4.25043 0.702213C4.25607 1.88806 4.26946 3.07391 4.24127 4.25841C4.22929 4.75616 3.92196 5.32386 3.06695 5.45637C3.06695 5.54381 3.06695 5.63529 3.06695 5.72744C3.06695 6.76732 3.06977 7.80654 3.06484 8.84643C3.06273 9.25875 2.83646 9.58027 2.48966 9.69461C2.16613 9.80089 1.80242 9.67511 1.62056 9.34552C1.53245 9.18543 1.48099 8.97759 1.47818 8.78992C1.46478 7.77627 1.47183 6.76262 1.47183 5.74829L1.47113 5.45368Z" stroke="white" stroke-width="0.4" stroke-miterlimit="10"/>
</g>
<defs>
<clipPath id="clip0_1383_11190">
<rect width="10" height="10" fill="white"/>
</clipPath>
</defs>
</svg>
