<svg width="25" height="29" viewBox="0 0 25 29" fill="none" xmlns="http://www.w3.org/2000/svg">
<g clip-path="url(#clip0_774_9652)">
<path d="M4.73759 2.93737V12.9291L0.552734 15.3883V10.3676L9.07443 5.57484V0.552734L4.73759 2.93737Z" stroke="black" stroke-linejoin="round"/>
<path d="M0.552734 15.3889L4.81358 17.8399L9.07443 15.3889L4.73759 12.9297L0.552734 15.3889Z" stroke="black" stroke-linejoin="round"/>
<path d="M9.07446 15.3883V10.4118L13.3132 7.97053V2.85448L9.07446 0.552734" stroke="black" stroke-linejoin="round"/>
<path d="M9.07446 5.57422L13.3132 7.96991" stroke="black" stroke-linejoin="round"/>
<path d="M20.2626 12.619V22.6107L24.4475 25.0713V20.0492L15.9258 15.2565V10.2344L20.2626 12.619Z" stroke="black" stroke-linejoin="round"/>
<path d="M24.4475 25.072L20.1866 27.5215L15.9258 25.072L20.2626 22.6113L24.4475 25.072Z" stroke="black" stroke-linejoin="round"/>
<path d="M15.9257 25.0713V20.0838L11.6855 17.6522V12.5361L15.9257 10.2344" stroke="black" stroke-linejoin="round"/>
<path d="M15.9257 15.2559L11.6855 17.6515" stroke="black" stroke-linejoin="round"/>
</g>
<defs>
<clipPath id="clip0_774_9652">
<rect width="25" height="28.0727" fill="white"/>
</clipPath>
</defs>
</svg>
