<svg width="27" height="28" viewBox="0 0 27 28" fill="none" xmlns="http://www.w3.org/2000/svg">
<path d="M15.698 27.2965H10.1737C10.3051 27.0883 10.4124 26.9185 10.5197 26.7488C11.1572 25.7557 11.4407 24.6361 11.7434 23.5117C12.2063 21.7963 11.9933 20.0553 12.0477 18.3254C12.0525 18.1957 11.9853 18.0627 11.9276 17.8385C11.8299 17.9971 11.777 18.0595 11.7498 18.1316C11.2148 19.5651 9.79733 20.6911 7.86568 20.4124C7.2266 20.3211 6.58271 20.1113 6.12142 19.618C5.83472 19.3121 5.46953 19.2592 5.11716 19.1455C4.09847 18.8203 3.49623 18.1156 3.1823 17.1129C3.12304 16.9255 2.95326 16.7269 2.78187 16.6276C0.768534 15.4552 0.432177 12.4135 1.92176 10.6853C2.01626 10.5748 2.11236 10.4546 2.16362 10.3217C2.47435 9.52085 3.04936 8.98428 3.81978 8.64472C4.06644 8.53581 4.20258 8.4381 4.10007 8.10335C3.48502 6.10122 4.7808 4.08948 6.95591 4.06065C7.22339 4.05745 7.49408 4.08468 7.75996 4.11991C7.96979 4.14714 8.09152 4.1055 8.18281 3.88606C8.74982 2.53423 9.7685 1.79905 11.2437 1.77342C11.7514 1.76541 12.2591 1.87913 12.7685 1.91437C12.9094 1.92398 13.0824 1.88714 13.1977 1.80866C14.4903 0.922916 15.8758 0.749932 17.3061 1.36338C18.4994 1.87593 19.2089 2.82734 19.3979 4.12472C19.4396 4.40982 19.5277 4.56839 19.8272 4.61003C21.0493 4.77981 21.7973 5.57586 22.3322 6.60255C22.4956 6.91649 22.5677 7.29449 22.6158 7.65167C22.6846 8.16261 22.6782 8.18824 23.194 8.26672C25.707 8.65433 26.7417 11.6079 25.4283 13.3762C25.0407 13.8983 24.7652 14.507 24.4641 15.0884C24.4049 15.2053 24.4305 15.3975 24.4801 15.5336C24.9494 16.8182 24.7877 18.0099 23.8619 19.0173C22.9041 20.0617 21.2976 20.382 19.8993 19.5795C19.6894 19.4594 19.5213 19.4482 19.2842 19.5219C17.9548 19.9431 16.7775 19.6853 15.7909 18.6666C15.6403 18.5112 15.485 18.343 15.2976 18.2437C15.0061 18.09 14.8939 18.1684 14.8907 18.5032C14.8827 19.3986 14.8875 20.2923 14.8875 21.1877C14.8875 22.1567 14.8907 23.1241 14.8875 24.0931C14.8827 25.1134 15.0765 26.0841 15.5779 26.9842C15.6131 27.0467 15.6275 27.1188 15.6916 27.2965H15.698Z" stroke="black" stroke-linejoin="round"/>
</svg>
