<svg width="10" height="12" viewBox="0 0 10 12" fill="none" xmlns="http://www.w3.org/2000/svg">
<g clip-path="url(#clip0_1383_11200)">
<path d="M3.69405 2.45848C3.66406 2.41226 3.64158 2.37665 3.61721 2.34167C3.44044 2.08494 3.26303 1.82945 3.0875 1.57209C2.8289 1.19292 2.86575 0.816256 3.20119 0.498305C3.57599 0.142874 4.18191 -0.125729 4.80906 0.228452C5.28755 0.498929 5.78603 0.578261 6.32261 0.487685C6.46191 0.463948 6.60746 0.465822 6.74988 0.472694C7.04034 0.487061 7.20338 0.715061 7.12342 0.994908C7.09157 1.1061 7.04409 1.21541 6.98975 1.31786C6.78361 1.70764 6.57123 2.09493 6.36134 2.48284C6.33948 2.52407 6.31949 2.56592 6.29388 2.61777C6.3451 2.64651 6.38883 2.67149 6.4338 2.69585C7.48073 3.26367 8.34651 4.01826 8.88684 5.10079C9.30536 5.93908 9.46277 6.8261 9.35845 7.75934C9.32847 8.02981 9.31535 8.30279 9.29224 8.57451C9.2635 8.90871 9.37469 9.18481 9.62643 9.40781C9.99061 9.73076 10.1399 10.1262 10.0218 10.6084C9.9069 11.0769 9.59645 11.3467 9.11234 11.338C8.73379 11.3305 8.35275 11.2887 7.97921 11.2237C6.64181 10.9919 5.2963 10.9157 3.94579 11.0394C3.3611 11.0931 2.7833 11.2156 2.20174 11.303C1.80571 11.363 1.40967 11.3817 1.01489 11.2912C0.715676 11.2224 0.457692 11.0806 0.257801 10.8426C0.0129352 10.5509 -0.00393054 10.2255 0.213451 9.91191C0.282163 9.81259 0.357747 9.71639 0.441451 9.62956C0.655084 9.40781 0.751282 9.14233 0.741912 8.83937C0.728169 8.40711 0.713177 7.97484 0.68944 7.54258C0.630723 6.47941 0.87309 5.4912 1.40967 4.57295C1.41592 4.56171 1.42279 4.55046 1.42966 4.53922C1.52024 4.39243 1.62455 4.34995 1.73762 4.41429C1.84631 4.47613 1.85943 4.58794 1.77635 4.74411C1.69889 4.88903 1.61643 5.03145 1.54522 5.17949C1.16793 5.96719 1.03425 6.79799 1.09734 7.66626C1.12545 8.0498 1.1367 8.43522 1.14794 8.82001C1.16043 9.25727 1.00302 9.63081 0.703808 9.94814C0.633221 10.0231 0.572005 10.1081 0.515785 10.1949C0.435829 10.3186 0.452695 10.4391 0.543895 10.5541C0.774394 10.8439 1.09797 10.947 1.44153 10.9445C1.78946 10.942 2.13927 10.8939 2.48346 10.837C3.65157 10.6434 4.82343 10.4935 6.00903 10.6009C6.83108 10.6759 7.64939 10.7958 8.47019 10.8883C8.70943 10.9151 8.9518 10.9301 9.19229 10.927C9.39843 10.9245 9.53835 10.8014 9.60519 10.6065C9.71263 10.2929 9.66953 10.01 9.42591 9.77011C9.37969 9.72451 9.33534 9.67704 9.28786 9.63269C9.00177 9.36346 8.87372 9.03176 8.8987 8.64073C8.91807 8.34277 8.93119 8.0448 8.96054 7.74747C9.11421 6.1777 8.56826 4.88778 7.40327 3.84772C6.93665 3.43108 6.43193 3.06815 5.84037 2.8414C5.0202 2.52657 4.22376 2.57654 3.47292 3.03254C3.17558 3.21307 2.91447 3.45231 2.63713 3.66532C2.61339 3.68344 2.59402 3.70842 2.57091 3.72716C2.45722 3.82086 2.33916 3.82086 2.25983 3.72716C2.18175 3.63596 2.19737 3.53664 2.30293 3.43108C2.62588 3.10625 2.99568 2.84515 3.39921 2.62964C3.49728 2.57717 3.59223 2.51845 3.6953 2.45848H3.69405ZM6.74176 0.857483C6.57123 0.869352 6.42131 0.883094 6.27201 0.889965C6.02215 0.900585 5.77166 0.921823 5.52242 0.910579C5.19385 0.895587 4.91775 0.713812 4.62666 0.585132C4.19315 0.393362 3.8296 0.455203 3.48416 0.782524C3.29364 0.963675 3.27365 1.12671 3.42232 1.34659C3.62346 1.64393 3.82835 1.93814 4.02887 2.23548C4.07259 2.30044 4.12069 2.3298 4.2019 2.31044C4.74847 2.18051 5.2838 2.23236 5.80789 2.42225C5.8916 2.45224 5.93407 2.43225 5.9728 2.35791C6.2108 1.90254 6.45129 1.44841 6.68991 0.993034C6.70927 0.956804 6.71989 0.914952 6.74176 0.857483Z" fill="white"/>
<path d="M6.13486 6.24713C6.16385 6.1805 6.18051 6.13238 6.20519 6.08857C6.25701 5.99603 6.33475 5.95285 6.44086 5.98616C6.54265 6.01762 6.60188 6.11202 6.56795 6.21875C6.50194 6.42604 6.42667 6.63086 6.34523 6.8326C6.3039 6.93378 6.21197 6.95723 6.10833 6.93255C5.92571 6.88813 5.74248 6.84618 5.56048 6.79929C5.41797 6.76289 5.35874 6.68577 5.37232 6.56732C5.38466 6.45935 5.45622 6.41308 5.61292 6.4137C5.65488 6.4137 5.69621 6.42049 5.76099 6.42604C5.73631 6.37545 5.71904 6.33535 5.69806 6.29772C5.52779 5.99171 5.35628 5.68633 5.18724 5.37971C5.13603 5.28717 5.08112 5.20079 4.9602 5.19894C4.83805 5.19709 4.7819 5.28161 4.73008 5.37477C4.53883 5.71779 4.34696 6.06143 4.15324 6.40321C4.12178 6.45812 4.08229 6.50994 4.03849 6.5556C3.97556 6.62099 3.89844 6.63765 3.81886 6.58336C3.73989 6.52969 3.70719 6.45442 3.73866 6.36126C3.75346 6.31684 3.77506 6.27427 3.79788 6.23355C3.99716 5.87511 4.20013 5.51852 4.39755 5.15946C4.52156 4.93428 4.69985 4.80719 4.96329 4.80842C5.22178 4.80965 5.39638 4.93736 5.5173 5.15761C5.69436 5.47965 5.87512 5.79923 6.05465 6.12004C6.07686 6.1589 6.10216 6.19592 6.13547 6.24836L6.13486 6.24713Z" fill="white"/>
<path d="M5.6081 8.58843C5.9906 8.58843 6.34473 8.5946 6.69823 8.58596C6.86049 8.58226 6.91293 8.47306 6.83519 8.33055C6.69145 8.06835 6.54523 7.808 6.40025 7.54703C6.38359 7.51742 6.36632 7.4878 6.35151 7.45696C6.28735 7.32308 6.30648 7.21882 6.40519 7.16576C6.51007 7.109 6.6242 7.14479 6.69515 7.26879C6.86666 7.56924 7.04064 7.86784 7.20042 8.17446C7.39414 8.54524 7.17389 8.94625 6.75376 8.97463C6.42616 8.99684 6.09672 8.98635 5.7685 8.99067C5.72285 8.99067 5.67719 8.99067 5.60686 8.99067C5.6519 9.05113 5.6846 9.08815 5.70928 9.12948C5.76357 9.22079 5.76172 9.31148 5.67781 9.38367C5.59576 9.454 5.49828 9.45955 5.42178 9.3849C5.26631 9.23251 5.11825 9.07273 4.97388 8.91047C4.89553 8.82225 4.91712 8.72662 4.99239 8.64519C5.12256 8.50391 5.25336 8.36324 5.38785 8.22567C5.48162 8.13004 5.58897 8.1214 5.67288 8.19235C5.76295 8.26885 5.76665 8.37682 5.68275 8.48787C5.66301 8.51378 5.64388 8.54031 5.6081 8.58904V8.58843Z" fill="white"/>
<path d="M3.16254 7.35828C3.09653 7.36815 3.05088 7.37617 3.00584 7.38049C2.87813 7.39407 2.793 7.34286 2.76832 7.2386C2.74117 7.12508 2.79485 7.03501 2.92317 6.99984C3.11257 6.94802 3.30382 6.90113 3.49508 6.85794C3.62957 6.82771 3.70792 6.86843 3.75851 6.99799C3.82699 7.1732 3.89115 7.34965 3.951 7.52794C3.99603 7.66182 3.95223 7.76176 3.8418 7.80248C3.73383 7.84196 3.63759 7.79014 3.58083 7.6612C3.56541 7.62665 3.5506 7.5921 3.52469 7.53226C3.45868 7.65071 3.40315 7.74942 3.34824 7.84813C3.26311 8.00114 3.17612 8.15352 3.09283 8.30714C2.99659 8.48482 3.05088 8.58538 3.25694 8.58908C3.5944 8.59587 3.93187 8.59278 4.26995 8.59402C4.31252 8.59402 4.35571 8.59155 4.39766 8.59772C4.50933 8.61376 4.57657 8.69396 4.56794 8.80131C4.5593 8.91174 4.49514 8.97652 4.38656 8.9796C4.19901 8.98577 4.01084 8.98146 3.82267 8.98269C3.63882 8.98392 3.45559 8.98331 3.27174 8.98948C3.03977 8.9975 2.85099 8.91853 2.72822 8.71679C2.60791 8.51875 2.62581 8.31886 2.73932 8.12144C2.86086 7.91045 2.9787 7.6976 3.09777 7.48476C3.11812 7.44836 3.13602 7.41072 3.16316 7.35705L3.16254 7.35828Z" fill="white"/>
<path d="M3.18229 4.00948C3.14034 4.07796 3.11875 4.13657 3.07865 4.17606C2.70416 4.53882 2.41605 4.96389 2.16434 5.41734C2.13719 5.4667 2.08969 5.52901 2.04218 5.53826C1.97185 5.55183 1.85587 5.54813 1.82687 5.50618C1.78615 5.44634 1.77443 5.3285 1.80651 5.26311C1.99283 4.88862 2.20567 4.52895 2.48947 4.21739C2.59558 4.10079 2.7054 3.98727 2.8183 3.87746C2.88554 3.81144 2.97377 3.78985 3.05212 3.84538C3.10517 3.88301 3.13725 3.95087 3.18229 4.0101V4.00948Z" fill="white"/>
<path d="M4.03368 3.41722C4.01394 3.44375 3.98433 3.50914 3.93435 3.54431C3.80911 3.63192 3.67647 3.70965 3.54321 3.7843C3.43093 3.84723 3.31556 3.81638 3.2514 3.71952C3.17737 3.60786 3.244 3.52395 3.32173 3.46843C3.46239 3.36725 3.61231 3.27471 3.76716 3.19759C3.89178 3.13528 4.0343 3.24078 4.03368 3.41784V3.41722Z" fill="white"/>
<path d="M1.97614 4.21557C1.86756 4.21495 1.77995 4.12796 1.7781 4.02061C1.77625 3.90771 1.86694 3.81641 1.98108 3.81764C2.08966 3.81887 2.17665 3.90463 2.17912 4.01198C2.18158 4.12426 2.09028 4.21618 1.97614 4.21495V4.21557Z" fill="white"/>
</g>
<defs>
<clipPath id="clip0_1383_11200">
<rect width="10" height="11.2746" fill="white"/>
</clipPath>
</defs>
</svg>
