<svg width="23" height="23" viewBox="0 0 23 23" fill="none" xmlns="http://www.w3.org/2000/svg">
<path d="M11.5001 7.33366C9.198 7.33366 7.33341 9.19824 7.33341 11.5003C7.33341 13.8024 9.198 15.667 11.5001 15.667C13.8022 15.667 15.6667 13.8024 15.6667 11.5003C15.6667 9.19824 13.8022 7.33366 11.5001 7.33366ZM20.8126 10.4587C20.3334 6.11491 16.8855 2.66699 12.5417 2.18783V0.0419922H10.4584V2.18783C6.11466 2.66699 2.66675 6.11491 2.18758 10.4587H0.041748V12.542H2.18758C2.66675 16.8857 6.11466 20.3337 10.4584 20.8128V22.9587H12.5417V20.8128C16.8855 20.3337 20.3334 16.8857 20.8126 12.542H22.9584V10.4587H20.8126ZM11.5001 18.792C7.46883 18.792 4.20841 15.5316 4.20841 11.5003C4.20841 7.46908 7.46883 4.20866 11.5001 4.20866C15.5313 4.20866 18.7917 7.46908 18.7917 11.5003C18.7917 15.5316 15.5313 18.792 11.5001 18.792Z" fill="#666666"/>
</svg>
